<?xml version="1.0" encoding="UTF-8" standalone="no"?>
<!-- Created with Inkscape (http://www.inkscape.org/) -->

<svg
   xmlns:dc="http://purl.org/dc/elements/1.1/"
   xmlns:cc="http://creativecommons.org/ns#"
   xmlns:rdf="http://www.w3.org/1999/02/22-rdf-syntax-ns#"
   xmlns:svg="http://www.w3.org/2000/svg"
   xmlns="http://www.w3.org/2000/svg"
   xmlns:sodipodi="http://sodipodi.sourceforge.net/DTD/sodipodi-0.dtd"
   xmlns:inkscape="http://www.inkscape.org/namespaces/inkscape"
   width="210mm"
   height="297mm"
   viewBox="0 0 210 297"
   version="1.1"
   id="svg3755"
   inkscape:version="0.92.3 (2405546, 2018-03-11)"
   sodipodi:docname="LOGO.svg">
  <defs
     id="defs3749" />
  <sodipodi:namedview
     id="base"
     pagecolor="#ffffff"
     bordercolor="#666666"
     borderopacity="1.0"
     inkscape:pageopacity="0.0"
     inkscape:pageshadow="2"
     inkscape:zoom="0.35"
     inkscape:cx="400"
     inkscape:cy="560"
     inkscape:document-units="mm"
     inkscape:current-layer="layer1"
     showgrid="false"
     inkscape:window-width="1366"
     inkscape:window-height="705"
     inkscape:window-x="-8"
     inkscape:window-y="-8"
     inkscape:window-maximized="1" />
  <metadata
     id="metadata3752">
    <rdf:RDF>
      <cc:Work
         rdf:about="">
        <dc:format>image/svg+xml</dc:format>
        <dc:type
           rdf:resource="http://purl.org/dc/dcmitype/StillImage" />
        <dc:title></dc:title>
      </cc:Work>
    </rdf:RDF>
  </metadata>
  <g
     inkscape:label="Capa 1"
     inkscape:groupmode="layer"
     id="layer1">
    <flowRoot
       xml:space="preserve"
       id="flowRoot3757"
       style="font-style:normal;font-weight:normal;font-size:40px;line-height:1.25;font-family:sans-serif;letter-spacing:0px;word-spacing:0px;fill:#000000;fill-opacity:1;stroke:none"
       transform="scale(0.26458333)"><flowRegion
         id="flowRegion3759"><rect
           id="rect3761"
           width="117.14286"
           height="125.71429"
           x="148.57143"
           y="191.09111" /></flowRegion><flowPara
         id="flowPara3763" /></flowRoot>    <text
       xml:space="preserve"
       style="font-style:normal;font-weight:normal;font-size:10.58333302px;line-height:1.25;font-family:sans-serif;letter-spacing:0px;word-spacing:0px;fill:#000000;fill-opacity:1;stroke:none;stroke-width:0.26458332"
       x="46.113091"
       y="63.410713"
       id="text3767"><tspan
         sodipodi:role="line"
         id="tspan3765"
         x="46.113091"
         y="73.066208"
         style="stroke-width:0.26458332"></tspan></text>
    <text
       xml:space="preserve"
       style="font-style:normal;font-weight:normal;font-size:10.58333302px;line-height:1.25;font-family:sans-serif;letter-spacing:0px;word-spacing:0px;fill:#000000;fill-opacity:1;stroke:none;stroke-width:0.26458332"
       x="29.482143"
       y="47.535713"
       id="text3771"><tspan
         sodipodi:role="line"
         id="tspan3769"
         x="29.482143"
         y="57.191208"
         style="stroke-width:0.26458332"></tspan></text>
    <path
       style="fill:#2b0000;stroke-width:0.26458332"
       id="path3804"
       d="m 50.99913,149.91892 c 0.427188,-2.46885 0.549741,-4.97593 0.65949,-7.47488 0.01574,-2.23967 0.418507,-4.44842 0.622435,-6.67413 0.0038,-2.57622 0.490098,-5.08258 0.984655,-7.59757 0.563123,-2.22229 0.983075,-4.47483 1.489763,-6.70961 0.433458,-2.02023 1.238469,-3.92865 1.743482,-5.92662 0.668158,-2.68623 1.047229,-5.43135 1.573609,-8.14659 0.514827,-2.7659 1.264616,-5.4777 1.962851,-8.20036 0.382472,-1.754142 0.92991,-3.462784 1.243735,-5.231733 0.303528,-1.290579 0.593043,-2.596761 1.020167,-3.853643 0.407919,-1.556549 0.966036,-3.062039 1.592922,-4.541742 0.522589,-1.368917 1.304467,-2.590091 2.144067,-3.778853 0.879324,-1.157248 1.741646,-2.326907 2.651566,-3.460369 3.603382,-3.680857 8.491787,-5.72993 12.953082,-8.207023 -19.735678,12.048437 -3.207128,0.744815 2.047685,-1.069221 0.74581,-0.257466 1.506579,-0.375203 2.284301,-0.482544 1.524474,-0.158523 3.059636,-0.146609 4.590325,-0.145556 1.566833,-0.06381 3.090463,0.0067 4.558273,0.589712 1.389949,0.392819 2.551134,1.156946 3.703828,2.000093 1.326864,0.70857 2.492964,1.630839 3.715254,2.493127 1.36876,0.878705 2.39423,2.113491 3.33125,3.419948 0.95038,1.005978 1.53079,2.270453 2.078,3.523835 0.84419,1.858192 1.0763,3.871859 1.21472,5.883984 0.20529,2.419239 0.76504,4.783405 1.15242,7.175661 0.12844,1.762101 0.56848,3.464277 0.9089,5.189911 0.27222,1.693173 0.30076,3.407313 0.5003,5.110093 0.30408,2.42592 0.44337,4.86584 0.51003,7.30836 0.0587,2.24942 0.077,4.49988 0.0736,6.75001 0.003,1.97718 0.23577,3.96484 0.594,5.90865 0.46728,1.64871 0.59532,3.35771 0.88999,5.03592 0.36602,1.48118 0.58943,2.98455 0.71151,4.50361 0.097,1.50783 0.0972,3.01957 0.10054,4.52983 5.3e-4,0.7559 -7.9e-4,1.51181 -0.002,2.26771 0,0 -9.97285,5.07952 -9.97285,5.07952 v 0 c 0.001,-0.75491 0.003,-1.50982 0.003,-2.26474 -5.3e-4,-1.48633 0.004,-2.97359 -0.067,-4.45863 -0.0929,-1.48251 -0.27231,-2.95492 -0.63863,-4.3979 -0.33169,-1.671 -0.39022,-3.39276 -0.86323,-5.04122 -0.40975,-1.99984 -0.62504,-4.07208 -0.67319,-6.10936 -0.004,-2.24648 0.0161,-4.49317 -0.0266,-6.73945 -0.0679,-2.40259 -0.16194,-4.8084 -0.49004,-7.19229 -0.2372,-1.6732 -0.35727,-3.34309 -0.53316,-5.02237 -0.30757,-1.75369 -0.76544,-3.4767 -0.84083,-5.265859 -0.35479,-2.427796 -0.946154,-4.811136 -1.208571,-7.252804 -0.126164,-1.87526 -0.289279,-3.769098 -1.080034,-5.502865 -0.55359,-1.172657 -1.105646,-2.354103 -1.989087,-3.322756 -0.873104,-1.221677 -1.833774,-2.32719 -3.133675,-3.117072 -1.19938,-0.889625 -2.438485,-1.699414 -3.713993,-2.47708 -1.101926,-0.746188 -2.225744,-1.371724 -3.522718,-1.723006 -1.427078,-0.357079 -2.878312,-0.326358 -4.341416,-0.300262 -1.493615,0.01442 -2.99824,0.02379 -4.470368,0.307811 -0.733907,0.175561 -1.427477,0.371901 -2.110507,0.701378 -0.229262,0.110591 -0.893527,0.487836 -0.673698,0.359516 0.444709,-0.259583 25.490998,-14.785877 -1.328828,0.787747 -3.055228,1.754526 -9.169918,5.268275 8.372425,-4.908058 1.814478,-1.052581 -4.216365,2.710103 -2.280404,1.750097 -1.057685,0.972711 -1.770314,2.245614 -2.69575,3.335195 -0.855588,1.13013 -1.747951,2.251664 -2.267944,3.584146 -0.687327,1.403858 -1.261838,2.880487 -1.622121,4.402193 -0.356383,1.242666 -0.72844,2.475539 -1.109869,3.717904 -0.264922,1.82985 -0.82224,3.57139 -1.266828,5.360418 -0.714755,2.718329 -1.548153,5.406575 -2.047271,8.177867 -0.585674,2.6909 -0.854983,5.43674 -1.482016,8.11916 -0.386771,2.04365 -1.234406,3.92036 -1.750941,5.93129 -0.481798,2.24162 -0.931423,4.49002 -1.542854,6.70184 -0.467469,2.4809 -1.083046,4.92902 -1.017535,7.47671 -0.150609,2.22563 -0.548322,4.41746 -0.653346,6.64235 -0.09735,2.51158 -0.283316,5.01777 -0.501465,7.52153 0,0 -10.063541,4.94904 -10.063541,4.94904 z"
       inkscape:connector-curvature="0" />
    <path
       style="fill:#2b0000;stroke-width:0.26458332"
       id="path3806"
       d="m 70.983551,115.45447 c 2.18708,0.40967 4.057584,0.56961 6.16087,-0.23827 -1.529675,1.33203 5.232395,-2.83954 3.368736,-1.7699 -9.104355,5.22538 -11.627612,7.00655 -8.201919,4.62552 21.385715,-12.44052 6.373386,-3.68813 1.179764,-0.73765 -0.195937,0.11132 0.374766,-0.25079 0.554638,-0.38654 0.629592,-0.47515 1.200282,-1.0272 1.785488,-1.55433 1.115308,-0.93823 2.175054,-1.93959 3.278518,-2.89007 1.088284,-0.81824 2.189705,-1.61958 3.309424,-2.3951 6.066523,-3.96421 20.65975,-11.982843 1.651352,-1.12702 -0.178231,0.10179 0.339434,-0.23094 0.512397,-0.34144 1.770354,-1.13105 -0.733512,0.50745 1.162788,-0.74037 3.624744,-2.57495 7.516093,-4.81704 11.587562,-6.54091 0.638149,-0.2702 1.184198,-0.58714 1.854925,-0.79692 1.386926,-0.34096 2.823136,-0.35816 4.243076,-0.3826 1.4662,-0.0642 2.89251,-0.0692 4.22527,0.60098 1.20097,0.91141 1.43571,2.14769 0.99854,3.52439 -2.88545,3.97733 -7.74816,6.77902 -12.609511,7.60411 -1.463451,0.18148 -2.941723,0.16847 -4.413724,0.16907 -1.525535,-0.0218 -3.005294,0.4408 -4.453736,0.87004 -3.460031,1.7969 -8.075311,4.4363 7.819585,-4.52416 0.190265,-0.10726 -0.3688,0.23472 -0.54475,0.36413 -0.354248,0.26054 -0.686102,0.55024 -1.030455,0.82373 -0.908923,0.76137 -1.713724,1.63372 -2.593885,2.4248 -3.644529,2.64586 -7.492796,4.58356 -11.54159,6.88458 -0.843269,0.29777 -0.45153,0.10494 -1.179806,0.56909 -0.190474,0.0915 -0.754272,0.3806 -0.571424,0.27464 2.85953,-1.65705 11.4827,-6.55048 8.62221,-4.89509 -3.370236,1.95039 -6.752211,3.88042 -10.130255,5.81726 -0.183608,0.10527 -0.738058,0.41468 -0.554654,0.30905 2.991908,-1.72324 5.986814,-3.44126 8.980223,-5.16189 -32.915442,18.88337 8.378409,-4.76575 -3.519527,2.16221 -3.427,1.99548 -6.862694,3.97599 -10.294041,5.96399 20.758364,-11.97004 1.767329,-1.00591 -1.519415,0.8298 -0.461867,0.25796 -0.967819,0.42966 -1.435142,0.6776 -0.209828,0.11132 -0.848865,0.4255 -0.64334,0.30642 3.010459,-1.74419 6.040004,-3.45522 9.060003,-5.18283 -4.291182,2.67776 -8.41729,5.82721 -13.184791,7.56846 -0.665995,0.43778 -1.468135,0.54841 -2.19112,0.83508 -0.678225,0.26892 -1.121444,0.58017 -1.86064,0.67832 -1.311336,-0.32936 -1.524624,-1.31484 -1.055851,-2.44948 0.396184,-1.03578 1.054613,-1.95447 1.80777,-2.76034 3.274023,-8.8011 7.646133,-4.16273 11.810844,-6.42627 0.32526,-0.17678 0.606182,-0.42789 0.930894,-0.60567 1.115177,-0.40117 2.238738,-0.78505 3.313724,-1.29624 3.444859,-1.49492 8.867116,-4.78209 -7.913952,4.62509 -0.174305,0.0977 0.31078,-0.25128 0.465167,-0.37814 0.339592,-0.27905 0.685842,-0.57071 1.022535,-0.85292 33.968334,-19.568479 -6.260214,3.44804 1.643965,-1.05939 3.391788,-1.93419 6.767721,-3.89728 10.19271,-5.77206 0.193389,-0.10586 0.435917,-0.0806 0.64208,-0.15869 0.185695,-0.0704 0.349417,-0.18879 0.524126,-0.28318 1.178394,-0.5347 2.335493,-1.07913 3.505539,-1.62734 1.108128,-0.42273 2.125948,-1.03391 3.187123,-1.56182 -3.05276,1.75369 -6.096291,3.52355 -9.158279,5.26108 -0.159166,0.0903 0.289367,-0.22594 0.447458,-0.31812 3.357724,-1.95799 6.766078,-3.8296 10.097968,-5.83124 3.01671,-1.81229 -6.095399,3.51942 -9.152273,5.26311 -0.160729,0.0917 0.302194,-0.21464 0.462814,-0.30651 3.375761,-1.93073 6.763501,-3.84044 10.145252,-5.76066 -24.144139,13.84972 0.618408,-0.3984 0.938705,-0.57879 0.170725,-0.0961 0.382085,-0.0995 0.55699,-0.18784 0.534432,-0.26984 0.923679,-0.56075 1.509853,-0.75591 0.610666,-0.52411 1.355516,-0.7197 2.120802,-0.88943 0,0 -8.875075,6.86711 -8.875075,6.86711 v 0 c -0.706723,0.29115 -1.35337,0.68333 -2.056223,0.98069 -11.228998,5.9179 29.492489,-16.774027 -2.980306,1.55717 3.039446,-1.75917 6.081297,-3.51419 9.118333,-5.27753 0.157385,-0.0914 -0.321882,0.17013 -0.479219,0.26158 -3.356089,1.95085 -6.717805,3.89217 -10.060881,5.86522 -3.026752,1.78637 6.070726,-3.54341 9.11189,-5.30513 0.156554,-0.0907 -0.305107,0.19454 -0.457661,0.29181 -3.348881,1.96424 -6.697763,3.92848 -10.046644,5.89273 -1.035728,0.56657 -2.133333,1.01852 -3.199384,1.52492 -1.158489,0.57247 -2.365132,1.04903 -3.533894,1.60205 -0.388517,0.13618 -1.502183,0.666 -1.147244,0.45742 3.006108,-1.76657 6.038897,-3.48735 9.052941,-5.24035 0.180996,-0.10527 -0.372544,0.19167 -0.553506,0.297 -3.376996,1.96561 -6.736662,3.96098 -10.120024,5.91561 -3.003727,1.7353 5.987402,-3.50509 8.981104,-5.25764 -0.537258,0.3455 -0.959713,0.85428 -1.497518,1.18064 -4.324649,2.62433 -7.178021,4.87903 -11.296322,6.5079 -1.104463,0.41274 -2.205283,0.86288 -3.252607,1.4001 -3.730712,2.09398 -11.354824,2.88725 6.433431,-4.17667 -0.953924,0.47382 -1.432573,1.33896 -2.043877,2.16703 -0.02043,0.0622 -0.16129,0.61766 -0.308584,0.68931 -0.284596,0.13843 -0.49226,-0.44858 0.08035,-0.32098 1.303155,-0.54959 2.634137,-1.02627 3.914812,-1.62979 3.666062,-1.88641 1.498772,-0.78504 -8.281029,4.84677 -0.207002,0.11921 0.397753,-0.26511 0.603843,-0.38588 0.556167,-0.32592 1.095679,-0.65571 1.634804,-1.01164 3.380105,-1.96004 6.754347,-3.93021 10.140313,-5.8801 0.655534,-0.3775 1.37646,-0.62084 2.03604,-0.99062 -1.341999,0.7879 -24.497416,14.18288 1.495822,-0.85731 -29.348274,17.04396 24.910256,-14.70923 -5.315562,2.9446 3.399743,-1.97143 6.794913,-3.95078 10.199233,-5.9143 2.847096,-1.64213 -5.666925,3.33119 -8.511294,4.97803 -0.168093,0.0973 0.328967,-0.20673 0.496657,-0.30474 9.941015,-5.8103 6.686349,-4.04361 10.645799,-6.18353 0.394396,-0.18183 1.536787,-0.80874 1.161841,-0.58959 -16.561221,9.67938 -10.669738,6.64548 -7.628213,4.27079 1.090586,-0.52425 1.717376,-1.56025 2.674972,-2.27244 1.007409,-1.07748 -0.105979,0.0509 1.005943,-0.89056 3.508383,-2.97035 7.625718,-5.36597 11.987977,-6.84662 1.512197,-0.41054 3.06636,-0.68306 4.639453,-0.63316 1.42636,-0.0211 2.87551,-0.0241 4.26126,-0.40488 0.38908,-0.14369 1.49069,-0.72412 1.13347,-0.51335 -15.825025,9.33737 -10.842143,6.72762 -7.668464,4.32579 0.594331,-0.62399 0.838883,-1.42263 -0.08162,-1.8772 -1.284957,-0.36686 -2.608379,-0.27555 -3.931621,-0.23299 -1.367862,0.0656 -2.753247,0.15583 -4.03574,0.68221 -0.608709,0.26725 -1.220073,0.53267 -1.825562,0.8062 -0.221554,0.10008 -0.864785,0.44353 -0.655325,0.32012 2.963116,-1.74582 5.945386,-3.45893 8.918078,-5.18839 -0.211731,0.12533 -0.423461,0.25066 -0.635191,0.37599 -3.471981,2.6863 -8.907179,5.31617 -11.749659,7.02963 -2.969501,1.79004 5.97965,-3.51185 8.980752,-5.24838 0.199316,-0.11532 -0.382804,0.25607 -0.574207,0.38411 -1.028906,0.8946 -2.248654,1.5471 -3.284198,2.43467 -1.260287,0.73318 -2.204464,1.91109 -3.333943,2.82415 -0.782805,0.59896 -1.434468,1.52976 -2.272896,2.03423 -2.860526,1.72112 -22.50559,13.15768 -1.201816,0.7422 -4.529879,3.01712 -9.235284,6.17886 -14.400776,8.03416 -2.174436,0.468 -4.319863,0.20007 -6.506086,-0.1032 0,0 9.165442,-6.46239 9.165442,-6.46239 z"
       inkscape:connector-curvature="0" />
    <path
       style="fill:#2b0000;stroke-width:0.26458332"
       id="path3812"
       d="m 105.71156,118.32278 c 2.21234,0.0428 4.42553,0.0342 6.63821,0.0273 2.16346,-0.074 4.34344,0.15405 6.49252,-0.13352 1.91028,-0.27392 3.81506,-0.48223 5.71154,-0.83935 2.05213,-0.50928 4.08414,-1.09907 6.14652,-1.56558 1.68791,-0.46007 3.46661,-0.28513 5.16045,-0.64668 1.54341,-0.19954 3.01756,-0.64952 4.53165,-0.98302 1.19604,-0.73318 2.60879,-0.77631 3.90198,-1.20025 1.44492,-0.44986 2.95383,-0.57719 4.45631,-0.65733 1.39566,0.10115 2.69355,-0.38151 4.05514,-0.59015 1.75198,-0.18374 3.52056,-0.17371 5.28081,-0.19542 1.59877,-0.003 3.19753,-0.007 4.7963,-0.01 0,0 -9.03409,6.56274 -9.03409,6.56274 v 0 c -1.59225,-0.005 -3.18469,-0.0123 -4.77677,0.0169 -1.74405,0.0306 -3.5007,0.0469 -5.22034,0.37297 -1.36158,0.27277 -2.71117,0.4974 -4.10733,0.48761 -1.47078,0.13879 -2.92125,0.38823 -4.33317,0.8352 -1.33867,0.29743 -2.60848,0.76126 -3.91621,1.16075 -1.51359,0.37822 -3.03828,0.68468 -4.58328,0.90895 -1.69901,0.15909 -3.41023,0.25389 -5.06875,0.69353 -2.06085,0.51308 -4.1077,1.08667 -6.18755,1.52073 -1.91041,0.33098 -3.84108,0.52194 -5.76553,0.7521 -2.17793,0.0926 -4.35938,0.0338 -6.53884,0.0473 -2.23775,-0.007 -4.475977,-0.0148 -6.713408,0.0273 0,0 9.073838,-6.59253 9.073838,-6.59253 z"
       inkscape:connector-curvature="0" />
    <path
       style="fill:#2b0000;stroke-width:0.26458332"
       id="path3814"
       d="m 135.77647,120.46202 c -0.0947,2.57985 -0.0679,5.16264 -0.0554,7.74373 0.004,2.15472 0.0287,4.3095 0.0232,6.46423 0.004,1.94469 -5.3e-4,3.88933 0.007,5.83402 0.005,1.66395 0.0189,3.32791 0.006,4.99184 -0.005,1.85999 -0.0109,3.71991 -0.005,5.57991 0.007,1.63482 0.0106,3.26964 0.0128,4.90447 0.002,1.51507 0.002,3.03013 0.002,4.5452 0.0465,1.45459 -0.0906,2.92035 0.0628,4.36917 0.19584,1.32419 0.55409,2.60803 0.88802,3.90098 0.19029,0.74224 0.28888,1.50121 0.38506,2.25966 0,0 -9.91435,5.1969 -9.91435,5.1969 v 0 c -0.0748,-0.71308 -0.15011,-1.42717 -0.31822,-2.12606 -0.33412,-1.33541 -0.75263,-2.64257 -0.95761,-4.00851 -0.23857,-1.48897 -0.0678,-3.00737 -0.11804,-4.51099 4e-5,-1.5156 1e-5,-3.03119 0.002,-4.54679 0.002,-1.63916 0.006,-3.27831 0.0127,-4.91746 0.006,-1.85829 2.7e-4,-3.71649 -0.005,-5.57477 -0.0134,-1.66583 0.001,-3.3317 0.006,-4.99756 0.007,-1.94701 0.003,-3.89397 0.007,-5.84099 -0.006,-2.16259 0.0189,-4.32524 0.0232,-6.48782 0.0123,-2.56225 0.0403,-5.1263 -0.0554,-7.68726 0,0 9.99342,-5.0919 9.99342,-5.0919 z"
       inkscape:connector-curvature="0" />
  </g>
</svg>
